<svg width="40" height="40" viewBox="0 0 40 40" fill="none" xmlns="http://www.w3.org/2000/svg">
<path d="M12.4968 39.5566H11.1004C11.1004 38.4908 11.0934 37.4441 11.105 36.3975C11.1085 36.1182 11.0089 35.9125 10.8399 35.677C9.67504 34.0484 8.0679 32.7022 7.17286 30.9073C6.63444 29.8255 5.97908 28.8524 5.05509 27.9987C4.46457 27.454 4.07436 26.7261 3.59268 26.0802C3.4711 25.9171 3.35763 25.7444 3.21405 25.5984C1.11597 23.4539 0.0264023 20.9375 0.0159813 18.0544C0.0113498 16.8766 -0.0870703 15.636 0.267242 14.5361C0.762816 13.0002 0.848499 11.4558 0.939972 9.9018C1.15997 6.14259 3.80921 3.31066 7.83517 2.60721C8.06443 2.56671 8.28906 2.44201 8.48821 2.31943C11.0587 0.731335 13.8874 -0.0584505 16.9836 0.00336815C19.7973 0.0587917 22.3701 0.833656 24.7217 2.25548C25.0239 2.43774 25.3864 2.57417 25.7407 2.64025C29.4146 3.32026 32.1472 6.22893 32.3406 9.67904C32.395 10.6479 32.4529 11.6178 32.5479 12.5835C32.5861 12.9725 32.7366 13.3519 32.8188 13.7388C32.9832 14.503 33.2403 15.2662 33.2739 16.0368C33.3456 17.6814 33.3665 19.3323 32.8721 20.946C32.3406 22.678 31.4351 24.2128 30.1325 25.5526C29.9704 25.7188 29.8153 25.9 29.6983 26.094C29.043 27.1854 28.2232 28.1564 27.232 29.0069C27.0827 29.1348 26.9738 29.3022 26.8198 29.4812C27.3675 29.6177 27.8457 29.7168 28.31 29.8543C29.8593 30.3158 31.2395 31.0544 32.3973 32.1085C34.8926 34.3809 37.3681 36.6725 39.8518 38.9576C39.9016 39.0034 39.9433 39.0567 40 39.1175C39.6758 39.4138 39.3643 39.6984 39.0355 40C38.9139 39.8934 38.7981 39.7954 38.687 39.6941C36.377 37.5699 34.0601 35.4521 31.7617 33.3172C29.8199 31.5127 27.4856 30.6196 24.7264 30.6355C22.3284 30.6494 19.9293 30.6409 17.5313 30.6355C17.192 30.6355 16.8979 30.6899 16.7289 30.9958C16.4846 31.4392 16.8238 31.905 17.4155 31.9114C18.3835 31.922 19.3515 31.9146 20.3195 31.9146C21.8652 31.9146 23.411 31.9092 24.9579 31.9156C26.9564 31.9241 28.6944 32.5562 30.1209 33.8427C31.999 35.5363 33.8447 37.2597 35.7043 38.9715C35.7448 39.0088 35.7784 39.0503 35.8281 39.1047C35.4958 39.3807 35.1693 39.6515 34.8127 39.9467C34.7652 39.9051 34.6506 39.8081 34.5406 39.708C32.7725 38.0815 31.0079 36.4529 29.2363 34.8296C28.0298 33.7243 26.5686 33.1776 24.8676 33.2021C24.6858 33.2042 24.4485 33.3076 24.335 33.4376C23.6403 34.2328 22.9675 35.0449 22.3041 35.8635C22.2207 35.9658 22.2057 36.1342 22.2045 36.2717C22.1964 37.3589 22.1999 38.446 22.1999 39.5545H20.8231V37.1222C19.4939 37.9067 18.1241 38.3021 16.6316 38.2979C15.1553 38.2936 13.7994 37.8971 12.4991 37.1318V39.5566H12.4968ZM24.3095 29.364C24.5631 29.364 24.8074 29.3427 25.0459 29.3693C25.325 29.4002 25.4674 29.3054 25.5531 29.0645C25.6955 28.6606 25.9074 28.2747 26.0128 27.8644C26.579 25.6698 27.1255 23.471 27.6674 21.2711C27.7033 21.1272 27.6801 20.9513 27.6257 20.8096C25.9792 16.543 22.7475 14.0106 17.8427 13.483C12.3972 12.8968 7.3998 15.9291 5.71392 20.7233C5.63056 20.9599 5.62245 21.2466 5.67803 21.4907C5.9675 22.7771 6.30444 24.054 6.59392 25.3405C7.0177 27.2206 7.55843 29.0592 8.63063 30.7293C8.73484 30.8903 8.84947 31.0459 9.01852 31.29C9.01852 30.336 9.01273 29.4994 9.01968 28.6627C9.03126 27.2739 10.1035 26.2709 11.6075 26.1558C11.9642 26.1281 12.3463 25.948 12.6381 25.7434C13.048 25.4556 13.3791 25.0751 13.7531 24.7425C15.4413 23.2376 17.8578 23.2365 19.5414 24.7393C19.9038 25.0633 20.2627 25.3916 20.6136 25.7263C20.9204 26.0194 21.2805 26.1601 21.7263 26.1782C22.9814 26.2294 23.9772 27.0117 24.2146 28.1468C24.2933 28.5209 24.2771 28.9121 24.3095 29.364ZM19.5008 9.5586C20.0879 9.62469 20.7097 9.66199 21.3164 9.76964C24.5261 10.3367 27.0873 11.8512 28.992 14.2952C29.1692 14.5222 29.3162 14.5702 29.5929 14.4657C30.1696 14.2472 30.6617 13.9328 31.0137 13.4606C31.1179 13.321 31.185 13.1206 31.1758 12.9533C31.1144 11.8651 31.0183 10.7779 30.9488 9.6897C30.7694 6.89081 28.5265 4.46497 25.5566 3.93311C24.9278 3.82013 24.3917 3.61016 23.8672 3.28721C21.7749 1.99968 19.4603 1.33034 16.9431 1.28024C14.1283 1.22375 11.567 1.95705 9.22463 3.39167C8.84252 3.62509 8.38169 3.79242 7.93243 3.88302C5.27393 4.41381 3.46995 5.84842 2.66522 8.22524C2.36533 9.10882 2.36648 10.083 2.26112 11.0188C2.12449 12.2253 2.23912 13.4681 1.62891 14.6043C1.59186 14.6746 1.57449 14.7556 1.5606 14.8345C1.26997 16.3938 1.32555 17.9595 1.53049 19.5189C1.61039 20.1243 1.81765 20.7158 1.96701 21.3127C2.00407 21.3063 2.04112 21.2999 2.07817 21.2935C2.0828 21.2455 2.09438 21.1965 2.09322 21.1485C1.99828 18.7056 2.70227 16.4748 4.17047 14.4401C4.24457 14.3378 4.21794 14.1172 4.14847 13.9936C3.71426 13.2155 3.45142 12.4055 3.48037 11.5134H4.7772C4.91846 12.0793 5.05161 12.6112 5.20677 13.2304C7.84674 10.7001 10.9742 9.50212 14.706 9.56713C14.1815 8.53327 13.8666 7.51326 13.8839 6.40373H15.2317C15.4297 7.88737 15.6324 8.54073 16.1453 9.29961C16.2159 9.40406 16.3306 9.55221 16.4313 9.55754C16.957 9.58312 17.4838 9.56926 18.1102 9.56926C17.8775 7.64862 17.6552 5.80366 17.4271 3.92459C17.8161 3.8649 18.2492 3.79882 18.7945 3.71462C19.0331 5.68215 19.2658 7.60386 19.502 9.55647L19.5008 9.5586ZM22.4511 33.1936C21.5329 33.1936 20.7108 33.2032 19.8887 33.1882C19.5807 33.1829 19.3654 33.2564 19.1419 33.4739C17.8578 34.722 15.7678 34.8019 14.3703 33.6785C12.9623 32.5477 12.7828 30.5961 13.9638 29.2617C15.1321 27.94 17.2731 27.6373 18.6845 28.749C19.3793 29.2958 20.0474 29.4098 20.8648 29.3683C21.4264 29.3395 21.9914 29.364 22.5553 29.3619C22.6642 29.3619 22.773 29.3427 22.8934 29.332C22.8934 29.1412 22.8934 28.9814 22.8934 28.8226C22.8911 27.9283 22.4534 27.4967 21.497 27.4455C20.8035 27.4082 20.2141 27.1567 19.722 26.709C19.3318 26.3541 18.9497 25.9906 18.556 25.6389C17.4792 24.6796 15.8477 24.6722 14.7674 25.6229C14.4328 25.9171 14.1016 26.2145 13.7867 26.5257C13.1973 27.1087 12.4968 27.4348 11.6157 27.4594C10.9603 27.4775 10.4277 27.9336 10.423 28.5188C10.4149 29.6742 10.3385 30.8466 10.5203 31.9806C11.0668 35.3828 14.5729 37.831 18.3962 36.7801C20.3704 36.2376 21.6313 34.9735 22.4523 33.1946L22.4511 33.1936ZM5.38161 26.1846C4.99604 24.5784 4.60583 22.9732 4.23299 21.3649C4.18668 21.1677 4.19015 20.9386 4.2492 20.7446C5.70582 16.0208 10.0722 12.6698 15.3776 12.1902C21.6198 11.6263 27.2853 15.1564 29.0418 20.7115C29.1066 20.9172 29.1113 21.1592 29.065 21.3702C28.8519 22.3327 28.6087 23.2898 28.3783 24.249C28.3007 24.5731 28.2278 24.8981 28.1514 25.2232C28.0761 25.5451 27.9985 25.8681 27.9221 26.1899C28.0715 26.1015 28.156 25.996 28.229 25.884C29.4922 23.9389 30.0156 21.8467 29.7585 19.5839C29.2108 14.7578 24.6696 10.9154 19.3989 10.8557C17.5637 10.8355 15.7285 10.8344 13.8944 10.8621C13.2494 10.8717 12.5941 10.9431 11.963 11.07C6.21876 12.2168 2.59922 17.2156 3.66216 22.5299C3.92847 23.8611 4.47962 25.0921 5.38393 26.1857L5.38161 26.1846ZM31.7732 14.7514C31.1156 15.1308 30.5494 15.457 30.0526 15.7437C30.3583 16.6613 30.7346 17.5567 30.9442 18.4829C31.1503 19.3995 31.1862 20.3491 31.2997 21.302C32.0986 19.1618 31.9898 16.9811 31.7744 14.7514H31.7732ZM16.7208 33.1541C15.8767 32.8067 15.3278 32.2567 15.2746 31.3987C15.2132 30.416 15.7933 29.7871 16.7358 29.3906C15.9299 29.3651 15.3035 29.6539 14.8867 30.2753C14.4467 30.9318 14.4455 31.6161 14.8844 32.2737C15.3 32.8973 15.9288 33.1882 16.7208 33.1541Z" fill="#2283C6"/>
<path d="M9.11719 21.3396C9.52476 21.153 9.90802 20.9772 10.2843 20.8045C11.3403 22.011 12.3789 22.0142 13.2798 20.7949C13.6654 20.9697 14.059 21.1488 14.4492 21.3257C14.1366 22.2263 13.0737 22.9245 11.9609 22.9746C10.7151 23.03 9.60813 22.4043 9.11719 21.3396Z" fill="#2283C6"/>
<path d="M23.0127 20.8047C23.389 20.9763 23.7723 21.15 24.1521 21.3238C23.8997 22.1807 22.8298 22.9033 21.7286 22.9747C20.4758 23.0547 19.3561 22.4386 18.8281 21.3483C19.216 21.1681 19.6062 20.9869 19.9895 20.809C21.1184 22.0197 21.9637 22.0197 23.0139 20.8047H23.0127Z" fill="#2283C6"/>
</svg>
