<svg width="40" height="40" viewBox="0 0 40 40" fill="none" xmlns="http://www.w3.org/2000/svg">
<path d="M37.3469 40H2.65098C1.18937 40 0 38.5876 0 36.852V3.14768C0 1.41202 1.18937 0 2.65098 0H37.3469C38.8082 0 39.9973 1.41202 39.9973 3.14768V36.852C39.9973 38.5876 38.8082 40 37.3469 40ZM2.65098 1.4845C1.87851 1.4845 1.2501 2.23074 1.2501 3.14768V36.852C1.2501 37.7693 1.87851 38.5155 2.65098 38.5155H37.3469C38.119 38.5155 38.7471 37.7693 38.7471 36.852V3.14768C38.7471 2.23074 38.119 1.4845 37.3469 1.4845H2.65098Z" fill="#2283C6"/>
<path d="M39.3749 32.8517H0.625052C0.27987 32.8517 0 32.5193 0 32.1094C0 31.6995 0.27987 31.3672 0.625052 31.3672H39.3749C39.7204 31.3672 40 31.6995 40 32.1094C40 32.5193 39.7204 32.8517 39.3749 32.8517Z" fill="#2283C6"/>
<path d="M16.9087 36.5102C16.5633 36.5102 16.2422 36.1286 16.2422 35.7187C16.2422 35.3088 16.5633 34.9268 16.9087 34.9268C17.2542 34.9268 17.5753 35.3088 17.5753 35.7187C17.5753 36.1286 17.2542 36.5102 16.9087 36.5102Z" fill="#2283C6"/>
<path d="M20.0025 36.5102C19.657 36.5102 19.3359 36.1286 19.3359 35.7187C19.3359 35.3088 19.657 34.9268 20.0025 34.9268C20.348 34.9268 20.6691 35.3088 20.6691 35.7187C20.6691 36.1286 20.348 36.5102 20.0025 36.5102Z" fill="#2283C6"/>
<path d="M23.0884 36.5102C22.7429 36.5102 22.4219 36.1286 22.4219 35.7187C22.4219 35.3088 22.7429 34.9268 23.0884 34.9268C23.4339 34.9268 23.7556 35.3088 23.7556 35.7187C23.7556 36.1286 23.4339 36.5102 23.0884 36.5102Z" fill="#2283C6"/>
<path d="M20.0042 28.3593C19.8388 28.3593 19.6733 28.281 19.5561 28.1422L9.82266 16.5909C8.65954 15.2013 8.01953 13.3696 8.01953 11.4307C8.02655 9.47138 8.66747 7.64184 9.82388 6.27658C10.9757 4.90443 12.5127 4.14696 14.1492 4.14551H14.1535C15.7955 4.14551 17.3386 4.90516 18.5008 6.28528L20.0036 8.06443L21.5021 6.28528C23.8973 3.4395 27.7935 3.4366 30.1863 6.27803C31.3381 7.64619 31.976 9.47464 31.9833 11.4274V11.4307C31.9833 13.3693 31.3436 15.201 30.1814 16.5891L20.4461 28.1422C20.3289 28.281 20.1696 28.3593 20.0042 28.3593ZM14.1535 5.63001H14.1498C12.8478 5.63146 11.6252 6.23381 10.7071 7.32689C9.78543 8.41562 9.27544 9.87331 9.26964 11.4339C9.26964 12.9746 9.78054 14.4348 10.7077 15.5424L20.0011 26.5714L29.2963 15.5406C30.2217 14.4352 30.7326 12.976 30.7332 11.4336C30.7277 9.87512 30.2193 8.41671 29.3024 7.32762C27.3968 5.06571 24.2941 5.06861 22.386 7.33487L20.4461 9.63809C20.202 9.92803 19.807 9.92803 19.5629 9.63882L17.6175 7.33559C16.6909 6.23563 15.461 5.63001 14.1535 5.63001Z" fill="#2283C6"/>
<path d="M18.9902 20.8929C18.9585 20.8929 18.9267 20.8914 18.8944 20.8885C18.4237 20.8454 18.0251 20.4942 17.8548 19.9716L15.0867 11.4951L13.5771 15.7131C13.3855 16.2469 12.9466 16.5912 12.4589 16.5912H9.89458C9.5491 16.5912 9.26953 16.2589 9.26953 15.849C9.26953 15.4391 9.5491 15.1067 9.89458 15.1067H12.4589L13.9702 10.8196C14.1637 10.2767 14.6112 9.95373 15.1074 9.94141C15.6043 9.95083 16.0413 10.3125 16.2208 10.8623L18.9939 19.3526L21.574 14.035C21.7962 13.5773 22.2034 13.3131 22.6551 13.3131C23.1 13.3258 23.5029 13.6255 23.7062 14.0952L24.2006 15.235L30.0196 15.2122C30.3651 15.2122 30.6446 15.5445 30.6446 15.9544C30.6446 16.3643 30.3651 16.6967 30.0196 16.6967H24.1695C23.7129 16.6967 23.299 16.3973 23.0897 15.9157L22.5952 14.7747L20.0395 20.1706C19.8203 20.6229 19.4242 20.8929 18.9902 20.8929Z" fill="#2283C6"/>
</svg>
