<svg width="40" height="40" viewBox="0 0 40 40" fill="none" xmlns="http://www.w3.org/2000/svg">
<path d="M36.5833 2.82759C34.4167 1.03448 31.4167 0 28.3333 0C21.9167 0 16.6667 4.34483 16.6667 9.65517V19.931C15.3333 19.5172 14 19.3103 12.5 19.3103C5.58333 19.3103 0 23.931 0 29.6552C0 35.3793 5.58333 40 12.5 40C15.5833 40 18.4167 39.1034 20.5833 37.5172C22.75 39.1034 25.4167 40 28.3333 40C34.75 40 40 35.6552 40 30.3448V9.65517C40 7.10345 38.75 4.62069 36.5833 2.82759ZM28.3333 1.37931C31 1.37931 33.5 2.2069 35.4167 3.7931C37.3333 5.37931 38.3333 7.44828 38.3333 9.65517V19.3103H18.3333V9.65517C18.3333 5.10345 22.8333 1.37931 28.3333 1.37931ZM13.3333 38.5517V20.7586C18.9167 21.1034 23.3333 24.9655 23.3333 29.6552C23.3333 34.3448 18.9167 38.2069 13.3333 38.5517ZM1.66667 29.6552C1.66667 24.9655 6.08333 21.1034 11.6667 20.7586V38.6207C6.08333 38.2069 1.66667 34.3448 1.66667 29.6552ZM28.3333 38.6207C25.9167 38.6207 23.5833 37.8621 21.75 36.5517C23.75 34.6897 25 32.2759 25 29.6552C25 25.7931 22.5 22.4828 18.75 20.6897H38.3333V30.3448C38.3333 34.8966 33.8333 38.6207 28.3333 38.6207Z" fill="#2283C6"/>
</svg>
