<svg width="40" height="40" viewBox="0 0 40 40" fill="none" xmlns="http://www.w3.org/2000/svg">
<path d="M15.191 40C14.8854 39.1651 14.5262 38.1566 14.1242 37.012C13.1057 34.1179 10.7952 34.2867 8.34543 34.4697C7.55742 34.526 6.81229 34.5822 6.11541 34.526C4.88246 34.4275 3.98188 34.0522 3.43509 33.4143C2.74357 32.6028 2.84006 31.599 2.95799 31.0736C3.01696 30.8109 3.10809 30.5623 3.18314 30.3419C3.37612 29.793 3.46725 29.4928 3.26891 29.2349C2.88294 28.7423 2.75965 28.2826 2.91511 27.8699C3.11881 27.321 3.7192 27.124 3.78353 27.1053L3.79961 27.1006L4.02476 27.0396C3.84786 26.9786 3.70312 26.9223 3.58519 26.8707C2.81862 26.5189 3.07057 25.3932 3.29571 24.3941C3.24211 24.3753 3.1885 24.3612 3.14026 24.3518L3.12417 24.3472L1.40877 23.9484C1.15146 23.8922 0.904869 23.7843 0.679723 23.6248L0.663641 23.6154C0.454576 23.4606 0.283036 23.2636 0.170462 23.0478C-0.135094 22.4662 -0.022521 21.786 0.449215 21.3029L4.59835 16.2276C4.60907 16.1197 4.61979 15.9039 4.61979 15.6178C4.61979 15.1815 4.59835 14.9095 4.58227 14.811L4.57691 14.8016L4.56082 14.7359C4.34104 13.9385 4.3732 13.3568 4.40001 12.8925C4.40537 12.7658 4.41609 12.6439 4.41609 12.536C4.38928 8.10796 6.34056 4.78695 10.2056 2.66676C13.1378 1.05785 17.1208 0.161924 22.0419 0.0118222C24.6364 -0.0679196 27.0862 0.255738 29.3216 0.982796C31.4444 1.67233 33.326 2.70428 34.9235 4.05051C36.5477 5.42019 37.8129 7.06194 38.6866 8.93352C39.5604 10.8004 40 12.8033 40 14.8954C40 16.6075 39.6516 18.2868 38.9654 19.8863C38.3007 21.4295 37.3411 22.8649 36.1082 24.1548C33.192 27.1991 33.4386 29.399 35.5936 34.0663L34.6018 34.4181C33.5512 32.1431 32.8543 30.2809 32.8704 28.5735C32.8864 26.8238 33.6316 25.2759 35.288 23.5544C37.6735 21.0684 38.9332 18.071 38.9332 14.8954C38.9332 10.9271 37.2446 7.31523 34.1837 4.72597C31.0799 2.10387 26.8932 0.795168 22.0847 0.949961C17.3513 1.09537 13.5506 1.94439 10.7792 3.46417C7.2465 5.40612 5.46677 8.45507 5.48285 12.5407C5.48285 12.672 5.47749 12.808 5.46677 12.9488C5.43997 13.3662 5.41317 13.84 5.58471 14.4826C5.63831 14.6046 5.68656 14.8579 5.68656 15.6318C5.68656 16.5043 5.62223 16.6122 5.52038 16.7201L1.29084 21.8986L1.27475 21.9174C1.06569 22.1285 1.01208 22.4193 1.1461 22.6679C1.19434 22.7617 1.26939 22.8461 1.36052 22.9165C1.46238 22.9868 1.56959 23.0338 1.6768 23.0572H1.68752L3.40293 23.4559C3.61199 23.4981 3.82642 23.5732 4.01404 23.6717C4.30887 23.8218 4.46433 24.122 4.40001 24.4175C4.38928 24.4691 4.37856 24.5207 4.36248 24.577C4.28743 24.9194 4.08373 25.806 4.17486 26.0921C4.43217 26.2 4.91463 26.336 5.52574 26.4814C5.82057 26.5518 6.01892 26.7769 6.02964 27.0396C6.035 27.307 5.84738 27.5368 5.5579 27.6213L4.15878 28.0106C4.12661 28.02 3.98724 28.0809 3.94971 28.1841C3.91219 28.2967 3.98724 28.4937 4.1695 28.7236C4.67876 29.3662 4.43753 30.0417 4.22846 30.6421C4.15342 30.8485 4.07837 31.0642 4.03012 31.28C3.94435 31.6506 3.8693 32.3542 4.31423 32.8748C4.66804 33.2923 5.31667 33.5409 6.22798 33.6113C6.82837 33.6582 7.53062 33.6066 8.27038 33.5503C9.50869 33.4612 10.9078 33.358 12.1461 33.7238C13.6149 34.1554 14.6013 35.1451 15.1642 36.754C15.5662 37.8986 15.9254 38.8977 16.2309 39.7326L15.191 40Z" fill="#2283C6"/>
<path d="M27.6538 21.4111C26.2654 21.4111 24.8019 21.1953 24.0032 20.5527C23.5743 20.2103 23.3653 19.7694 23.3867 19.2722C22.8828 19.0189 22.5773 18.6858 22.4969 18.3153C22.202 18.3293 21.7946 18.3809 21.3122 18.5263C19.8809 18.9626 17.742 18.9766 16.1981 18.0291C16.0534 17.94 15.914 17.8556 15.78 17.7758C15.1957 17.4193 14.7722 17.166 14.4881 16.908C14.3594 16.7908 14.0056 16.4671 14.0646 15.9793C14.0002 15.9183 13.9466 15.8526 13.9037 15.7823C13.818 15.6697 13.625 15.5524 13.5285 15.5337C12.7619 15.3976 11.7434 15.1303 11.0894 14.619C10.0763 14.4267 9.22928 13.8685 8.79506 13.0992C8.38765 12.3674 8.41446 11.556 8.87011 10.8054C8.91836 10.7257 8.9398 10.6319 8.92908 10.5334C8.85403 9.78757 9.11134 8.31938 11.7166 6.83243C11.7809 6.7949 11.8345 6.748 11.8667 6.6964L11.8721 6.68702C12.183 6.25078 13.0675 5.22352 14.4666 5.0828H14.472C14.5792 5.07342 14.6757 5.03589 14.7615 4.97491C15.4369 4.47301 17.2434 3.33317 19.3394 3.68028C19.4145 3.69435 19.4949 3.68966 19.5699 3.6709L19.5807 3.66621C20.3526 3.4692 22.3628 3.08925 24.3087 3.72719C24.4106 3.76002 24.5071 3.7694 24.5875 3.75533C25.2469 3.65683 26.5495 3.62399 27.8575 4.45894C27.9379 4.51053 28.029 4.54337 28.1255 4.54806C28.7902 4.59497 30.4735 4.89986 31.6743 6.72923L31.6796 6.73392C31.7171 6.79021 31.7654 6.83712 31.8244 6.87464L31.8297 6.87934C32.4676 7.27804 33.5719 8.09892 33.8185 9.12149C33.8292 9.17309 33.856 9.22468 33.8989 9.28097C34.6065 10.2285 36.1879 12.6067 35.743 14.2719V14.2766C35.7269 14.3328 35.7215 14.3891 35.7323 14.436V14.4501C35.8288 15.0927 35.9199 16.6829 34.7352 17.6398C33.7596 18.4278 33.0841 18.8078 32.4301 18.8969C32.414 19.0939 32.3711 19.3237 32.28 19.5724C32.0549 20.1634 31.4866 20.928 30.0553 21.2C29.4174 21.322 28.549 21.4111 27.6538 21.4111ZM24.4696 19.2252C24.432 19.4879 24.5125 19.6849 24.7322 19.8632C25.5685 20.5339 28.0451 20.6231 29.8356 20.2853C31.6046 19.9476 31.3687 18.5685 31.358 18.5123L31.2401 17.879L31.9691 17.9728C32.3229 18.0197 32.7518 17.9775 34.0115 16.9549C34.8478 16.2795 34.7352 14.9755 34.6762 14.5815C34.6441 14.4126 34.6548 14.2343 34.7084 14.0561C34.9979 12.9772 34.0169 11.1432 33.0037 9.78757L32.9983 9.77818C32.8911 9.62339 32.8161 9.4686 32.7786 9.31381C32.5963 8.5586 31.5402 7.84562 31.2186 7.64392C31.031 7.52665 30.8702 7.37186 30.7576 7.1983C29.8088 5.75826 28.549 5.52372 28.0505 5.4862C27.7556 5.46275 27.4715 5.37362 27.2357 5.21883C26.2439 4.58559 25.2737 4.61373 24.7805 4.68409C24.5178 4.72162 24.2283 4.69816 23.9496 4.60904H23.9442C22.2985 4.06492 20.567 4.39796 19.8916 4.56682C19.6504 4.63249 19.393 4.64187 19.1465 4.59966C17.5115 4.3276 16.0266 5.27043 15.4637 5.6879C15.2117 5.87084 14.9116 5.98341 14.5953 6.01156C13.6572 6.10537 13.0246 6.85588 12.7887 7.17954C12.6708 7.3484 12.51 7.49382 12.3116 7.61108L12.3063 7.61577C10.087 8.88226 9.95296 10.0174 10.0012 10.449V10.4583C10.028 10.7398 9.96368 11.0165 9.81358 11.2511C9.4437 11.8562 9.57772 12.3674 9.75462 12.6864C10.0548 13.2212 10.6927 13.6152 11.4271 13.7231L11.604 13.7465L11.7273 13.8591C12.0811 14.1781 12.7941 14.4501 13.7376 14.6143C14.2039 14.694 14.6221 15.0224 14.8151 15.2898L14.8311 15.3132C14.8472 15.3367 14.874 15.3648 14.9062 15.3883C15.126 15.5477 15.2171 15.8104 15.1367 16.045C15.126 16.0825 15.1153 16.1247 15.26 16.256C15.4691 16.4437 15.8765 16.6923 16.3911 17.0065C16.5251 17.0863 16.6645 17.1707 16.8092 17.2645C18.2244 18.1276 20.0792 17.9072 20.9584 17.6398C22.2181 17.2552 23.1348 17.4006 23.1723 17.4053L23.8209 17.5131L23.569 18.0479C23.4778 18.2402 23.8156 18.4231 24.0246 18.5123L24.03 18.5169C24.3463 18.6436 24.5178 18.9297 24.4696 19.2252Z" fill="#2283C6"/>
<path d="M25.3235 25.1814C25.2699 25.1814 25.2109 25.1767 25.1573 25.1673C24.8357 25.1157 24.5408 24.9187 24.2835 24.581C23.919 24.1025 23.6992 23.6522 23.4901 23.2113C23.1363 22.4748 22.8308 21.8416 21.8605 21.2318C20.0057 20.0779 20.1558 18.1969 20.1612 18.1172L21.2279 18.1922C21.2226 18.2485 21.1261 19.6323 22.477 20.4719C23.6992 21.2365 24.0905 22.0574 24.4711 22.8501C24.6695 23.2629 24.8571 23.6569 25.168 24.0603C25.2163 24.1213 25.2591 24.1682 25.2913 24.1963C25.3342 24.1307 25.3717 24.0415 25.3664 24.004C25.2699 23.6757 25.2431 22.7985 25.2216 21.6868C25.2109 21.3069 25.2055 20.9128 25.1948 20.8096L26.2616 20.7111C26.2777 20.8472 26.283 21.1474 26.2991 21.668C26.3152 22.3154 26.3366 23.5209 26.4117 23.7742C26.5564 24.2667 26.1919 24.8202 25.8863 25.0125C25.7094 25.1251 25.5165 25.1814 25.3235 25.1814Z" fill="#2283C6"/>
<path d="M24.5092 18.474C23.6622 18.474 22.9921 18.3333 22.9492 18.3239L23.2065 17.4139C23.2226 17.4186 24.6217 17.7094 25.7528 17.3858C29.2801 16.3679 30.9312 16.8745 31.6013 17.2685C32.0945 17.5593 32.3893 17.958 32.4215 18.4036L31.3547 18.4693C31.344 18.3239 31.2153 18.1691 31.0063 18.0472C30.5989 17.8079 29.3016 17.3482 26.0852 18.277C25.5545 18.4271 25.0023 18.474 24.5092 18.474Z" fill="#2283C6"/>
<path d="M13.5747 15.3734C13.564 15.3172 13.3228 14.0131 14.8505 13.1219C15.2472 12.8921 15.5581 12.6341 15.8583 12.3855C16.4587 11.8929 17.0752 11.3817 18.0723 11.4942C18.0937 11.4942 18.1152 11.4989 18.1313 11.5036C19.1659 11.6303 20.2058 11.4473 21.0582 10.9876C21.16 10.9314 21.2565 10.8844 21.353 10.8375C21.3959 10.8141 21.4441 10.7953 21.487 10.7719C23.3418 9.84781 24.698 10.0542 25.5075 10.3919C26.392 10.7531 26.8155 11.3348 26.8637 11.3957L25.9524 11.8929C25.9524 11.8929 25.6361 11.4708 25.0089 11.2222C24.1727 10.8938 23.1649 11.0158 22.0231 11.5881C21.9802 11.6115 21.9319 11.635 21.8837 11.6584C21.7926 11.7053 21.7068 11.7475 21.621 11.7898C20.5543 12.362 19.2677 12.5872 17.9919 12.4324C17.9704 12.4324 17.9543 12.4277 17.9383 12.423C17.4665 12.3714 17.1717 12.5966 16.6035 13.0656C16.2872 13.3283 15.9227 13.6238 15.4509 13.9006C14.5182 14.4447 14.6308 15.1858 14.6361 15.2187V15.214L13.5747 15.3734Z" fill="#2283C6"/>
<path d="M27.718 36.8626C27.6162 36.7219 27.5036 36.5811 27.3857 36.4357C26.5387 35.3662 25.488 34.0341 25.5577 30.9476C25.6756 26.0224 25.1074 24.8966 25.0859 24.8544C25.0913 24.8638 25.0913 24.8685 25.0913 24.8685L26.0348 24.4229C26.1098 24.5401 26.7531 25.7409 26.6298 30.9711C26.5655 33.7573 27.4714 34.8972 28.2702 35.9057C28.3935 36.0605 28.506 36.2059 28.6186 36.356L27.718 36.8626Z" fill="#2283C6"/>
</svg>
