<svg width="40" height="40" viewBox="0 0 40 40" fill="none" xmlns="http://www.w3.org/2000/svg">
<path d="M20.6005 16.5081L20.2366 16.851C20.7096 17.353 21.3693 17.7229 22.1126 17.9336C22.8575 18.1447 23.6714 18.1921 24.4509 18.0722L24.4543 18.0716C25.2065 17.9504 25.9077 17.6746 26.4642 17.2632C27.0209 16.8515 27.423 16.3099 27.5743 15.6903C27.7271 15.0642 27.6061 14.4278 27.2519 13.8732C26.9028 13.3266 26.349 12.8906 25.6868 12.5974C24.9148 12.2349 24.3051 11.7532 23.8973 11.2098C23.4906 10.6679 23.2974 10.0829 23.3098 9.50581L23.3099 9.50581V9.49509V1.06987V0.56987H22.8099H17.1177H16.6177V1.06987V9.47905H16.6176L16.6179 9.48976C16.6302 10.0668 16.437 10.6519 16.0303 11.1938C15.6227 11.737 15.0131 12.2186 14.2415 12.581C13.7385 12.8022 13.2974 13.1053 12.9595 13.4779C12.6194 13.8531 12.3899 14.2929 12.3096 14.7682C12.2289 15.2454 12.3043 15.7252 12.5202 16.1663C12.7347 16.6045 13.0782 16.9858 13.5075 17.2913C13.937 17.5969 14.4487 17.8244 15.0017 17.9649C15.5552 18.1054 16.1435 18.157 16.7251 18.1175C17.3066 18.0779 17.8733 17.9479 18.384 17.7327C18.8927 17.5184 19.3412 17.2214 19.6881 16.854C19.6988 16.8433 19.7262 16.822 19.7772 16.8031C19.8291 16.7838 19.8937 16.7715 19.9638 16.7715C20.0339 16.7715 20.0985 16.7838 20.1504 16.8031C20.2031 16.8226 20.2306 16.8447 20.2405 16.855L20.6005 16.5081ZM20.6005 16.5081C20.5304 16.4353 20.4356 16.3756 20.3245 16.3344C20.2135 16.2931 20.0896 16.2715 19.9638 16.2715C19.838 16.2715 19.7141 16.2931 19.6031 16.3344C19.492 16.3756 19.3973 16.4353 19.3271 16.5081L22.8099 9.49509C22.7948 10.1962 23.0312 10.8887 23.4974 11.51C23.9636 12.1312 24.6449 12.6614 25.4795 13.0524C26.0742 13.3148 26.5442 13.694 26.8306 14.1423C27.1169 14.5906 27.2066 15.0879 27.0885 15.5717C26.9705 16.0555 26.6498 16.5041 26.1669 16.8611C25.684 17.2181 25.0605 17.4675 24.3748 17.578C23.6643 17.6873 22.923 17.6436 22.249 17.4525C21.5749 17.2615 21.0001 16.9321 20.6005 16.5081ZM16.3441 18.1906H16.3436C15.9944 18.1902 15.6464 18.1651 15.3051 18.116C14.3884 17.9716 13.5706 17.6432 12.9498 17.1878C12.3285 16.732 11.9477 16.1824 11.8097 15.6249C11.6733 15.074 11.7695 14.5001 12.1114 13.9638C12.4575 13.4209 13.0456 12.9348 13.8288 12.5899L13.8357 12.5869L13.8425 12.5836C14.5242 12.2586 15.099 11.8098 15.4981 11.2641C15.897 10.7186 16.1067 10.0935 16.0835 9.4482V0.574835C16.0864 0.572439 16.09 0.569747 16.0942 0.566811C16.1413 0.533951 16.2326 0.5 16.3506 0.5H23.577C23.695 0.5 23.7863 0.533951 23.8335 0.566811C23.8377 0.569747 23.8412 0.572439 23.8441 0.574835V9.4696C23.8209 10.1149 24.0306 10.74 24.4296 11.2855C24.8286 11.8312 25.4035 12.28 26.0851 12.605L26.095 12.6097L26.105 12.614C26.6735 12.8552 27.1482 13.1727 27.5048 13.537C27.8607 13.9007 28.0874 14.2987 28.1884 14.7C28.2888 15.0993 28.2667 15.508 28.1202 15.9054C27.9728 16.3053 27.6984 16.6954 27.2976 17.0432C26.8965 17.3913 26.3831 17.6843 25.7864 17.8949C25.1901 18.1054 24.5313 18.2264 23.8548 18.2469C23.1783 18.2674 22.5054 18.1868 21.8824 18.0123C21.2589 17.8377 20.7063 17.5751 20.2582 17.2487L19.9708 17.0394L19.6787 17.2421C19.2524 17.538 18.7385 17.7778 18.1638 17.9425C17.5894 18.1071 16.9707 18.192 16.3441 18.1906Z" fill="#2283C6" stroke="#2283C6"/>
<path d="M23.618 39.9999H16.3666C16.1624 39.9999 15.9666 39.9438 15.8223 39.8441C15.6779 39.7443 15.5968 39.609 15.5968 39.4679V31.5728C15.6134 31.0555 15.4425 30.5436 15.0997 30.0836C14.7568 29.6236 14.2529 29.2303 13.6339 28.9393C12.7438 28.5512 12.0488 27.9827 11.6438 27.3114C11.2387 26.6401 11.1434 25.8987 11.3707 25.1886C11.5147 24.7577 11.776 24.3497 12.1405 23.9862C12.2491 23.8742 12.4152 23.7948 12.6053 23.7642C12.7954 23.7336 12.9952 23.754 13.1643 23.8213C13.7326 24.0481 14.3479 24.2132 14.9887 24.3108C16.5631 24.5425 18.2058 24.3684 19.6074 23.8213C19.7449 23.7665 19.9035 23.7423 20.0616 23.7522C20.1784 23.7564 20.292 23.7801 20.3926 23.8213C21.7942 24.3684 23.4369 24.5425 25.0113 24.3108C25.6521 24.2132 26.2674 24.0481 26.8357 23.8213C27.0048 23.754 27.2046 23.7336 27.3947 23.7642C27.5848 23.7948 27.7509 23.8742 27.8595 23.9862C28.224 24.3497 28.4853 24.7577 28.6293 25.1886C28.8566 25.8987 28.7613 26.6401 28.3562 27.3114C27.9512 27.9827 27.2562 28.5512 26.3661 28.9393C25.7471 29.2303 25.2432 29.6236 24.9003 30.0836C24.5575 30.5436 24.3866 31.0555 24.4032 31.5728V39.4679C24.4032 39.5386 24.3828 39.6087 24.3431 39.674C24.3035 39.7392 24.2454 39.7983 24.1723 39.8479C24.0992 39.8974 24.0125 39.9364 23.9173 39.9625C23.8221 39.9886 23.7204 40.0013 23.618 39.9999ZM17.1364 38.9359H22.8482V31.5728C22.8316 30.8761 23.0682 30.1877 23.5362 29.5705C24.0042 28.9534 24.6887 28.4272 25.5271 28.0402C26.2448 27.7289 26.779 27.2513 27.0342 26.6929C27.2894 26.1345 27.2491 25.5315 26.9204 24.9917C26.4267 25.1489 25.9108 25.2702 25.3808 25.3535C23.5592 25.6278 21.6566 25.4606 19.9923 24.88C18.3395 25.4553 16.4515 25.6224 14.6423 25.3535C14.0993 25.2716 13.5704 25.1503 13.0642 24.9917C12.7355 25.5315 12.6952 26.1345 12.9504 26.6929C13.2056 27.2513 13.7398 27.7289 14.4575 28.0402C15.2959 28.4272 15.9804 28.9534 16.4484 29.5705C16.9164 30.1877 17.153 30.8761 17.1364 31.5728V38.9359Z" fill="#2283C6"/>
<rect y="19.8633" width="40" height="2.75501" rx="1.3775" fill="#2283C6"/>
</svg>
