<svg width="40" height="40" viewBox="0 0 40 40" fill="none" xmlns="http://www.w3.org/2000/svg">
<path d="M10.2759 10.7613C10.4443 10.7613 10.5812 10.8979 10.5812 11.0659H11.5987C11.5987 10.338 11.0055 9.74609 10.2759 9.74609C9.54634 9.74609 8.95312 10.338 8.95312 11.0659H9.97065C9.97065 10.8979 10.1075 10.7613 10.2759 10.7613Z" fill="#2283C6"/>
<path d="M15.1587 10.7613C15.3271 10.7613 15.464 10.8979 15.464 11.0659H16.4815C16.4815 10.338 15.8883 9.74609 15.1587 9.74609C14.4292 9.74609 13.8359 10.338 13.8359 11.0659H14.8535C14.8535 10.8979 14.9903 10.7613 15.1587 10.7613Z" fill="#2283C6"/>
<path d="M10.5859 15.1251C10.5859 16.3008 11.5444 17.2571 12.7227 17.2571C13.901 17.2571 14.8595 16.3008 14.8595 15.1251C14.8595 13.9495 13.901 12.9932 12.7227 12.9932C11.5444 12.9932 10.5859 13.9495 10.5859 15.1251ZM12.7227 14.0084C13.3399 14.0084 13.842 14.5094 13.842 15.1251C13.842 15.7409 13.3399 16.2419 12.7227 16.2419C12.1056 16.2419 11.6035 15.7409 11.6035 15.1251C11.6035 14.5094 12.1056 14.0084 12.7227 14.0084Z" fill="#2283C6"/>
<path d="M16.7859 28.6466C17.0776 28.6466 17.314 28.4107 17.314 28.1197C17.314 27.8287 17.0776 27.5928 16.7859 27.5928C16.4942 27.5928 16.2578 27.8287 16.2578 28.1197C16.2578 28.4107 16.4942 28.6466 16.7859 28.6466Z" fill="#2283C6"/>
<path d="M39.802 5.20305C39.632 4.9934 39.3797 4.8731 39.109 4.8731H37.6484V4.56853H36.6309V6.19289H37.6484V5.88832H38.9523L37.3243 13.4685C36.9789 15.0766 35.5319 16.2437 33.8835 16.2437C32.2352 16.2437 30.7882 15.0766 30.4428 13.4685L28.8148 5.88832H30.1187V6.19289H31.1362V4.56853H30.1187V4.8731H28.6581C28.3879 4.8731 28.135 4.9934 27.9651 5.20305C27.7952 5.41269 27.7301 5.68426 27.7871 5.94822L29.4477 13.6812C29.6644 14.6904 30.2271 15.6041 31.0314 16.2528C31.7035 16.7949 32.5206 17.1325 33.3748 17.2294V32.5888C33.3748 33.8761 32.3247 34.9239 31.0345 34.9239C29.7443 34.9239 28.6942 33.8761 28.6942 32.5888V30.9645C28.6942 29.1497 27.2406 27.6685 25.434 27.6168C25.434 27.6162 25.434 27.6162 25.434 27.6157C25.4371 27.5137 25.4381 27.4117 25.4381 27.3096V12.6904C25.4381 9.30051 24.1153 6.11371 21.7129 3.71675C19.3106 1.3198 16.1166 0 12.719 0C9.32154 0 6.12753 1.3198 3.72516 3.71675C1.32278 6.11371 0 9.30051 0 12.6904V27.3096C0 30.6995 1.32278 33.8863 3.72516 36.2832C6.12753 38.6802 9.32154 40 12.719 40C16.1166 40 19.3106 38.6802 21.7129 36.2832C23.8004 34.2005 25.0728 31.5208 25.3704 28.6305C26.6454 28.6487 27.6767 29.6883 27.6767 30.9645V32.5888C27.6767 34.436 29.1831 35.9391 31.0345 35.9391C32.8859 35.9391 34.3923 34.436 34.3923 32.5888V17.2289C35.246 17.132 36.0636 16.7944 36.7357 16.2523C37.54 15.6036 38.1027 14.6898 38.3194 13.6807L39.98 5.94772C40.0365 5.68426 39.9719 5.41269 39.802 5.20305ZM12.719 1.01523C18.2584 1.01523 22.9106 4.87563 24.1168 10.0411C23.4183 12.1122 21.8239 13.7061 20.5957 14.6858C20.1531 15.0391 19.6891 15.3726 19.217 15.6944C20.0768 14.2782 20.554 12.6553 20.554 11.066C20.554 8.98173 19.7496 7.20101 18.2279 5.91574C16.812 4.7198 14.8553 4.06091 12.719 4.06091C10.5828 4.06091 8.62606 4.7198 7.21017 5.91574C5.68847 7.20101 4.88411 8.98173 4.88411 11.066C4.88411 12.9259 5.53737 14.8325 6.6948 16.399C5.38677 15.7365 4.11131 14.9904 3.06885 13.9569C2.07626 12.9726 1.46116 11.9051 1.18847 10.6975C2.13884 5.20609 6.94816 1.01523 12.719 1.01523ZM12.8488 20.1914C12.6845 20.0137 12.513 19.8452 12.3365 19.6843C12.4637 19.6919 12.5908 19.6954 12.7185 19.6954C12.9577 19.6954 13.1953 19.6817 13.4313 19.6563C13.238 19.8254 13.0431 20.0036 12.8488 20.1914ZM12.2958 5.08579C12.6071 5.30457 12.8366 5.58376 12.9485 5.88376C13.0737 6.2198 13.0411 6.59797 12.863 6.86954C12.6773 7.1533 12.3161 7.333 11.9844 7.30711C11.8384 7.29594 11.7056 7.24213 11.6461 7.17107C11.5845 7.09746 11.5845 6.95888 11.6461 6.84924C11.7285 6.70203 11.9071 6.5736 12.1355 6.49594L11.8073 5.53502C11.3373 5.69492 10.9648 5.98528 10.7578 6.3533C10.4881 6.8335 10.5309 7.42386 10.8646 7.82234C11.1017 8.10558 11.4807 8.2868 11.9045 8.3198C11.9534 8.32335 12.0017 8.32538 12.0505 8.32538C12.7079 8.32538 13.3489 7.98274 13.7142 7.42538C14.0708 6.88071 14.141 6.17259 13.9014 5.53046C13.85 5.39239 13.7849 5.25787 13.7071 5.12843C17.1855 5.49949 19.5365 7.83655 19.5365 11.066C19.5365 14.6604 16.6207 18.6802 12.719 18.6802C8.81735 18.6802 5.90164 14.6604 5.90164 11.066C5.90164 7.66447 8.50955 5.25279 12.2958 5.08579ZM12.719 38.9848C6.31119 38.9848 1.08977 33.8193 1.01854 27.4426V27.4421C2.08135 28.6619 3.60814 29.4944 5.12222 30.2447C6.82759 31.0898 8.95014 32.1421 9.81504 34.0193L10.7395 33.5954C9.72498 31.3924 7.42385 30.2518 5.57501 29.3355C3.69412 28.403 1.79644 27.3452 1.01803 25.5797V12.9878C1.36857 13.5792 1.81068 14.1401 2.35201 14.6766C3.86303 16.1756 5.74494 17.0802 7.56478 17.9548L7.57241 17.9584C9.13482 18.7096 10.8956 19.5569 12.1441 20.9264C11.032 22.1766 10.0699 23.7472 9.77535 25.6056L10.7802 25.7645C11.204 23.0904 13.239 21.0411 14.8711 19.7924C15.82 19.0665 16.8548 18.4152 17.8555 17.7853C18.986 17.0736 20.1546 16.3381 21.2317 15.4787C22.2538 14.6635 23.5114 13.4513 24.3941 11.8939C24.4124 12.1574 24.4216 12.4223 24.4216 12.6904V19.9675C24.2364 21.5228 23.0851 22.8457 22.149 23.6827L22.8281 24.4386C23.3527 23.9695 23.9367 23.3614 24.4221 22.6431V27.3096C24.4221 27.4117 24.4206 27.5127 24.418 27.6142H19.6972C19.4556 26.232 18.2442 25.1777 16.7907 25.1777C15.1637 25.1777 13.8399 26.4985 13.8399 28.1218C13.8399 29.7452 15.1637 31.066 16.7907 31.066C18.2442 31.066 19.4556 30.0117 19.6972 28.6294H24.3478C23.6869 34.4482 18.724 38.9848 12.719 38.9848ZM18.7224 28.1218C18.7224 29.1853 17.855 30.0508 16.7891 30.0508C15.7233 30.0508 14.8558 29.1853 14.8558 28.1218C14.8558 27.0584 15.7233 26.1929 16.7891 26.1929C17.855 26.1929 18.7224 27.0584 18.7224 28.1218Z" fill="#2283C6"/>
</svg>
