<svg width="42" height="42" viewBox="0 0 42 42" fill="none" xmlns="http://www.w3.org/2000/svg">
<path d="M28.8808 26.3617C28.2343 26.3617 27.579 26.1254 27.1421 25.7054C26.6373 25.2167 26.5443 24.5954 26.8882 23.998L27.5406 24.2679C27.2675 24.7417 27.4683 25.0892 27.6882 25.2992C28.0794 25.6754 28.7819 25.8467 29.3222 25.6879C29.8905 25.5254 30.2329 25.0379 30.2949 24.3117C30.3761 23.3405 30.8956 22.8955 31.4004 22.4667C31.8152 22.1105 32.2462 21.743 32.5429 21.0118C33.2706 19.2118 33.3518 17.9681 32.7835 17.2118C32.3746 16.6681 31.5923 16.3518 30.3953 16.2418C28.2668 16.0368 27.9318 18.0518 27.917 18.1381L27.1967 18.0681C27.3221 17.1318 28.1443 15.3981 30.475 15.6306C31.9067 15.7606 32.8617 16.1718 33.3961 16.8843C34.0898 17.8068 34.0352 19.2243 33.2293 21.2118C32.8794 22.078 32.3673 22.5142 31.9141 22.9005C31.43 23.313 31.0801 23.613 31.0182 24.3567C30.9074 25.6892 30.0543 26.1292 29.5524 26.2704C29.3384 26.3304 29.1096 26.3617 28.8808 26.3617Z" fill="#2283C6" stroke="#2283C6" stroke-width="0.55"/>
<path d="M21.398 18.35C21.0732 17.9362 20.7072 17.545 20.3116 17.1863L20.8415 16.765C21.2651 17.1488 21.6578 17.5675 22.0032 18.0087L21.398 18.35ZM18.7322 16.0075C18.2643 15.7213 17.7595 15.4563 17.2326 15.2188L17.5721 14.6763C18.1285 14.9238 18.6614 15.2063 19.1559 15.51L18.7322 16.0075ZM15.2827 14.5038C14.7351 14.3401 14.1609 14.2001 13.5779 14.0838L13.7418 13.4851C14.3514 13.6063 14.9506 13.7526 15.5233 13.9226L15.2827 14.5038ZM11.4746 13.7788C10.6937 13.7051 10.121 13.6951 9.84943 13.6951L9.71659 13.6976L9.67969 13.0826L9.85091 13.0801C10.1373 13.0801 10.7395 13.0926 11.5543 13.1688L11.4746 13.7788Z" fill="#2283C6" stroke="#2283C6" stroke-width="0.55"/>
<path d="M10.644 23.8097C9.51189 23.7922 8.81077 23.6972 8.78125 23.6934L8.89638 23.0872C8.90524 23.0872 9.58126 23.1784 10.6573 23.1947L10.644 23.8097ZM12.861 23.7372L12.7931 23.1247C13.3939 23.0772 13.9887 23.0034 14.554 22.9097L14.6943 23.5122C14.1039 23.6109 13.4883 23.6872 12.861 23.7372ZM16.8449 23.0347L16.6161 22.4509C17.1917 22.2884 17.7452 22.1022 18.2604 21.8947L18.5718 22.4497C18.0272 22.6684 17.4471 22.8647 16.8449 23.0347ZM20.5143 21.5222L20.1084 21.011C20.5807 20.7422 21.0368 20.4447 21.4663 20.126L21.9446 20.586C21.4944 20.9247 21.0117 21.2385 20.5143 21.5222Z" fill="#2283C6" stroke="#2283C6" stroke-width="0.55"/>
<path d="M12.151 33.9665L12.0742 33.3552C12.0816 33.3552 12.7694 33.2902 13.8278 33.089L13.9857 33.689C12.8846 33.9002 12.182 33.9652 12.151 33.9665ZM16.123 33.1927L15.8986 32.6077C16.4654 32.4527 17.0308 32.2752 17.5784 32.0827L17.8559 32.6502C17.2905 32.8502 16.706 33.0315 16.123 33.1927ZM19.8544 31.839L19.5061 31.3003C20.0301 31.0565 20.5378 30.7903 21.0161 30.5078L21.4294 31.0115C20.9319 31.309 20.402 31.5853 19.8544 31.839ZM23.1667 29.8278L22.6707 29.379C23.1062 29.0353 23.5091 28.6691 23.8737 28.2891L24.4375 28.6753C24.0538 29.0765 23.6257 29.4653 23.1667 29.8278Z" fill="#2283C6" stroke="#2283C6" stroke-width="0.55"/>
<path d="M16.3971 17.8042C13.6591 16.7042 9.5365 16.8717 9.35938 16.8755L9.39628 17.4892C9.41104 17.4892 9.81104 17.4717 10.4487 17.483C10.5033 17.8954 10.6849 18.5954 11.2959 18.8904L11.4362 18.9292C11.7875 18.9617 12.1329 18.9754 12.4679 18.9754C14.6097 18.9754 16.2982 18.3942 16.3779 18.3667L17.1337 18.1004L16.3971 17.8042ZM11.1867 17.5042C11.5365 17.5192 11.9262 17.5467 12.3277 17.583C12.4354 17.6692 12.6037 17.8355 12.6037 18.0017C12.6037 18.1154 12.5048 18.2317 12.3425 18.3492C12.0989 18.3467 11.8554 18.3467 11.6015 18.3254C11.355 18.1654 11.2369 17.7967 11.1867 17.5042ZM13.2222 18.3242C13.2694 18.2192 13.3299 18.1142 13.3299 18.0004C13.3299 17.8842 13.2945 17.7817 13.2532 17.683C13.8923 17.7667 14.5462 17.8842 15.1602 18.0517C14.6613 18.1642 13.9823 18.2729 13.2222 18.3242Z" fill="#2283C6"/>
<path d="M38.1704 40.8325C35.8072 33.5751 36.9644 31.1614 38.4287 28.104C39.6272 25.6053 40.9822 22.7703 40.9999 16.8129C41.0147 11.4305 38.9113 7.13062 34.9172 4.37442C30.4566 1.29197 23.7435 0.25824 16.5095 1.53447C12.2083 2.29195 8.9595 4.13692 6.85467 7.01437C4.00296 10.9118 4.12399 15.553 4.63175 17.1917C4.77493 17.6529 4.90925 18.0242 5.01847 18.3354C5.49524 19.6691 5.53509 19.7779 4.31588 21.5079C4.02953 21.9178 3.62804 22.4153 3.2059 22.9416C1.76528 24.7353 0.835374 25.9665 1.02431 26.6928C1.07597 26.8878 1.20586 27.0415 1.4007 27.1403C1.70181 27.2915 2.28632 27.4515 2.9653 27.6377C3.68709 27.8377 5.03471 28.209 5.18527 28.3727C5.18527 28.5502 5.02881 28.7415 4.87825 28.9277C4.67751 29.1752 4.45167 29.4552 4.56238 29.7765C4.67308 30.0927 5.10704 30.3314 5.47014 30.4802C5.24431 30.7614 5.00076 31.1477 5.04652 31.4639C5.09818 31.8264 5.73288 32.1764 6.9329 32.5064C6.75873 34.5651 7.02589 35.7601 7.81852 36.4751C8.85618 37.4126 10.6702 37.4263 13.5485 37.3863C13.5972 37.3851 13.643 37.3851 13.6917 37.3851C18.1331 37.3851 19.3671 40.8488 19.4187 40.9988H20.1877L20.1154 40.8288C20.1007 40.7888 18.6881 36.7701 13.6887 36.7701C13.6371 36.7701 13.5869 36.7701 13.5352 36.7713C10.871 36.8188 9.17796 36.8013 8.34842 36.0538C7.69011 35.4576 7.48346 34.3051 7.6783 32.3114L7.70339 32.0627L7.42295 31.9914C6.64212 31.7939 5.86129 31.4927 5.7683 31.3889C5.74616 31.2464 6.04432 30.8277 6.32182 30.5489L6.66426 30.2064L6.16241 30.0602C5.74764 29.939 5.3004 29.7127 5.26202 29.6052C5.25759 29.5502 5.39486 29.3777 5.47752 29.2752C5.67088 29.0377 5.91148 28.7402 5.91148 28.3727C5.91148 27.8302 4.87677 27.519 3.18818 27.0528C2.60367 26.8928 2.00145 26.7253 1.73428 26.5578C1.59849 26.0353 2.9284 24.3803 3.80664 23.2866C4.2347 22.7516 4.64061 22.2478 4.94024 21.8203C6.27016 19.9291 6.25244 19.6641 5.71221 18.1554C5.60446 17.8504 5.47457 17.4867 5.33435 17.0329C4.87382 15.5417 4.7705 11.028 7.47165 7.33686C9.47021 4.60691 12.5596 2.85944 16.6585 2.13696C23.683 0.900728 30.1687 1.88821 34.4596 4.84941C38.2781 7.48561 40.2885 11.6218 40.2737 16.8104C40.256 22.6516 38.9276 25.4253 37.7556 27.874C36.2397 31.0377 35.0411 33.5376 37.4707 40.9963L37.4722 41H38.225L38.1704 40.8325Z" fill="#2283C6" stroke="#2283C6" stroke-width="0.55"/>
</svg>
