<svg width="40" height="40" viewBox="0 0 40 40" fill="none" xmlns="http://www.w3.org/2000/svg">
<path d="M38.9043 9.2561C38.246 8.74247 37.3807 8.46027 36.4688 8.46027C35.5011 8.46027 34.5664 8.78867 33.9035 9.36098L25.1609 16.9118C24.8612 17.1703 24.8743 17.5786 25.1893 17.8246L25.2192 17.8475L19.473 22.8098C18.8649 17.1474 19.0809 9.72519 20.1216 0.707173C20.1424 0.525697 20.0694 0.346302 19.9208 0.211444C19.7722 0.0774186 19.5607 0 19.3391 0H3.73337C3.47826 0 3.23888 0.10156 3.09078 0.273046C2.9437 0.4437 2.90668 0.663469 2.99138 0.859929C6.44573 8.90813 6.95645 14.0856 4.51289 16.2517C1.50739 17.9898 -0.0120996 19.7846 7.25521e-05 21.5885C0.010216 23.3704 1.51043 25.1136 4.48906 26.7856C7.71721 28.4197 10.0598 30.7177 11.452 33.6184C11.4596 33.6321 11.4667 33.6467 11.4749 33.6617C13.7029 37.4581 16.5096 39.2604 19.8062 39.0302C21.242 39.1301 21.7968 39.2154 22.0053 39.2595C23.0024 39.754 23.9878 40 24.9408 40C26.1225 40 27.254 39.6212 28.2952 38.8649C29.2472 38.1748 29.0357 37.4993 28.9003 37.2408C28.3855 36.2564 26.3913 35.841 25.165 35.836C23.9462 35.0182 22.8705 34.3539 21.9632 33.8598C20.8327 32.7426 20.1551 30.865 19.9451 28.2732C21.0873 28.1504 22.2031 27.8432 23.2205 27.3537C25.5753 26.2228 27.1546 24.2432 27.4822 22.0281C28.035 21.5011 28.5169 21.0728 28.9272 20.7403L29.1752 20.9338C29.3207 21.0474 29.5155 21.1111 29.7168 21.1111C29.7234 21.1111 29.7295 21.1111 29.7371 21.1111C29.9451 21.107 30.1439 21.0345 30.2869 20.9105L39.03 13.3597C39.6792 12.7995 40.0236 12.0631 39.9987 11.2869C39.9759 10.5098 39.5869 9.78887 38.9043 9.2561ZM21.0046 34.8883C21.9393 35.3915 23.08 36.0979 24.3946 36.9882C24.5533 37.0964 24.7577 37.1492 24.9636 37.1338C25.9176 37.0623 27.2337 37.4589 27.4391 37.7257C27.4193 37.7549 27.3696 37.8136 27.254 37.898C25.8623 38.9062 24.4291 38.9761 22.7437 38.1157C22.6905 38.0895 22.6347 38.0679 22.5769 38.0516C22.3096 37.9792 21.738 37.8672 19.8691 37.7386C19.8214 37.7353 19.7747 37.7353 19.7276 37.7395C17.0867 37.9501 14.8572 36.4396 12.9061 33.1218C11.3851 29.9676 8.83198 27.4661 5.34669 25.7038C2.8514 24.3015 1.58194 22.9146 1.57383 21.5823C1.5647 20.215 2.88031 18.7644 5.48261 17.2714C5.5247 17.2477 5.56376 17.2202 5.59926 17.1894C8.48659 14.7195 8.2396 9.51499 4.83901 1.29239H18.4759C17.4285 10.6696 17.283 18.317 18.0412 24.0476L16.1966 25.6401C16.1312 24.714 16.1348 23.8124 16.2184 22.9421C16.2519 22.5867 15.9288 22.2761 15.4952 22.2478C15.0687 22.2216 14.6827 22.4851 14.6492 22.8414C14.5164 24.2233 14.5656 25.673 14.7847 27.176C14.7872 27.2014 14.7852 27.2255 14.7913 27.2501C14.7938 27.2584 14.7989 27.2647 14.8014 27.273C15.0043 28.6257 15.3436 30.0201 15.8289 31.4515C15.9253 31.7383 16.2413 31.9247 16.5856 31.9247C16.6556 31.9247 16.7266 31.9173 16.7971 31.901C17.216 31.8057 17.461 31.4498 17.3449 31.106C16.9959 30.0784 16.7281 29.0727 16.5314 28.09C17.1364 28.2224 17.7536 28.3015 18.3734 28.3273C18.6082 31.3116 19.4182 33.4236 20.8433 34.7722C20.8895 34.8163 20.9443 34.855 21.0046 34.8883ZM26.1286 21.3413C26.0226 21.4429 25.9577 21.569 25.9435 21.7013C25.7325 23.5864 24.4179 25.2826 22.4262 26.2391C20.7693 27.0349 18.7964 27.2447 16.9675 26.848L26.3593 18.7374L27.7865 19.8504C27.3128 20.2366 26.7661 20.7286 26.1286 21.3413ZM37.8904 12.4706L29.6894 19.5532L26.8437 17.333L35.0452 10.2505C35.418 9.92872 35.9236 9.75141 36.4698 9.75141C36.9765 9.75141 37.4558 9.90833 37.8209 10.1922C38.1988 10.4873 38.4143 10.8873 38.428 11.3198C38.4407 11.7518 38.25 12.1601 37.8904 12.4706Z" fill="#2283C6"/>
</svg>
