<svg width="40" height="40" viewBox="0 0 40 40" fill="none" xmlns="http://www.w3.org/2000/svg">
<path d="M38.4314 18.3057H1.56863C0.705798 18.3057 0 18.9158 0 19.6616V38.6444C0 39.3902 0.705798 40.0003 1.56863 40.0003H38.4314C39.2942 40.0003 40 39.3902 40 38.6444V19.6616C40 18.9158 39.2942 18.3057 38.4314 18.3057ZM39.2157 38.6444C39.2157 39.0181 38.8637 39.3223 38.4314 39.3223H1.56863C1.13627 39.3223 0.784314 39.0181 0.784314 38.6444V19.6616C0.784314 19.2877 1.13627 18.9836 1.56863 18.9836H38.4314C38.8637 18.9836 39.2157 19.2877 39.2157 19.6616V38.6444Z" fill="#2283C6"/>
<path d="M36.8614 20.3389H3.13588C2.70465 20.3389 2.35156 20.6439 2.35156 21.0168V37.2878C2.35156 37.6605 2.70465 37.9657 3.13588 37.9657H36.8614C37.2926 37.9657 37.6457 37.6605 37.6457 37.2878V21.0168C37.6457 20.6439 37.2926 20.3389 36.8614 20.3389ZM36.8614 37.2878H3.13588V21.0168H36.8614V37.2878Z" fill="#2283C6"/>
<path d="M16.4572 25.7634C17.1998 25.7634 17.9972 25.7432 18.8485 25.7028C19.0648 25.6929 19.2303 25.533 19.2184 25.346C19.207 25.159 19.022 25.0037 18.8056 25.0262C12.2193 25.3371 10.455 24.3535 9.98935 23.7391C9.65539 23.2992 9.88096 22.8917 9.89437 22.8685C9.99315 22.7037 9.92041 22.5004 9.73045 22.413C9.53896 22.3246 9.30155 22.3879 9.20006 22.5531C9.18127 22.5838 8.74394 23.3134 9.3199 24.093C10.1402 25.2036 12.5368 25.7634 16.4572 25.7634Z" fill="#2283C6"/>
<path d="M15.2584 28.1368C16.0079 28.1368 16.8117 28.1166 17.6677 28.0759C17.884 28.066 18.0495 27.9061 18.0376 27.719C18.0261 27.5317 17.8346 27.3801 17.6247 27.3993C10.9489 27.7124 9.05895 26.6955 8.52702 26.0606C8.16244 25.6253 8.32557 25.2376 8.33593 25.2141C8.4175 25.043 8.32444 24.8463 8.12683 24.7735C7.92808 24.6997 7.69754 24.7801 7.61252 24.9526C7.59797 24.9821 7.26361 25.6842 7.87177 26.434C8.79013 27.5661 11.2702 28.1368 15.2584 28.1368Z" fill="#2283C6"/>
<path d="M14.6093 30.5154C15.4334 30.5154 16.3215 30.4929 17.2724 30.4479C17.4887 30.438 17.6542 30.2781 17.6423 30.091C17.6309 29.904 17.4428 29.7511 17.2295 29.7713C10.2909 30.099 8.32133 29.1274 7.76756 28.5193C7.47039 28.1932 7.55078 27.9251 7.55768 27.9036C7.62549 27.7291 7.51902 27.5391 7.31756 27.4772C7.11423 27.4133 6.88902 27.5063 6.81666 27.6825C6.79176 27.7427 6.58878 28.2883 7.11804 28.9013C8.04482 29.9745 10.5598 30.5154 14.6093 30.5154Z" fill="#2283C6"/>
<path d="M20.3937 33.2201V26.4405C20.3937 26.2532 20.2183 26.1016 20.0015 26.1016C19.7848 26.1016 19.6094 26.2532 19.6094 26.4405V33.2201C19.6094 33.4075 19.7848 33.5591 20.0015 33.5591C20.2183 33.5591 20.3937 33.4075 20.3937 33.2201Z" fill="#2283C6"/>
<path d="M20.7889 34.2363H19.2203C19.0035 34.2363 18.8281 34.388 18.8281 34.5753C18.8281 34.7627 19.0035 34.9143 19.2203 34.9143H20.7889C21.0056 34.9143 21.1811 34.7627 21.1811 34.5753C21.1811 34.388 21.0056 34.2363 20.7889 34.2363Z" fill="#2283C6"/>
<path d="M20.7889 35.5928H19.2203C19.0035 35.5928 18.8281 35.7444 18.8281 35.9318C18.8281 36.1191 19.0035 36.2707 19.2203 36.2707H20.7889C21.0056 36.2707 21.1811 36.1191 21.1811 35.9318C21.1811 35.7444 21.0056 35.5928 20.7889 35.5928Z" fill="#2283C6"/>
<path d="M19.2203 23.051H20.7889C21.0056 23.051 21.1811 22.8994 21.1811 22.712C21.1811 22.5247 21.0056 22.373 20.7889 22.373H19.2203C19.0035 22.373 18.8281 22.5247 18.8281 22.712C18.8281 22.8994 19.0035 23.051 19.2203 23.051Z" fill="#2283C6"/>
<path d="M19.2203 24.4065H20.7889C21.0056 24.4065 21.1811 24.2548 21.1811 24.0675C21.1811 23.8801 21.0056 23.7285 20.7889 23.7285H19.2203C19.0035 23.7285 18.8281 23.8801 18.8281 24.0675C18.8281 24.2548 19.0035 24.4065 19.2203 24.4065Z" fill="#2283C6"/>
<path d="M7.8943 32.5469C8.72724 33.1735 9.95505 33.5254 11.2315 33.5254C11.5057 33.5254 11.7822 33.5092 12.0571 33.4758C12.6959 33.3989 13.386 33.2126 14.1167 33.0156C15.1928 32.7256 16.3096 32.4254 17.2241 32.4985C17.4416 32.5158 17.6308 32.378 17.6507 32.192C17.6703 32.0056 17.5117 31.8405 17.2961 31.8232C16.2223 31.7411 15.0328 32.0586 13.8831 32.3684C13.1842 32.5571 12.524 32.7349 11.9488 32.8044C10.6107 32.9643 9.25497 32.6717 8.40901 32.0354C7.77634 31.5594 7.4558 30.9318 7.45619 30.1691C7.45619 29.982 7.28077 29.8301 7.06403 29.8301C6.84763 29.8301 6.67188 29.9817 6.67188 30.1691C6.67148 31.1228 7.09391 31.9451 7.8943 32.5469Z" fill="#2283C6"/>
<path d="M20.7819 25.346C20.77 25.533 20.9354 25.6929 21.1518 25.7028C22.0035 25.7432 22.8004 25.7634 23.543 25.7634C27.4631 25.7631 29.86 25.2036 30.6804 24.093C31.2563 23.3134 30.819 22.5838 30.8002 22.5531C30.6987 22.3879 30.4613 22.3246 30.2698 22.413C30.0787 22.5011 30.0059 22.7063 30.1078 22.8715C30.1101 22.8755 30.346 23.286 30.0193 23.7282C29.5625 24.3472 27.8066 25.3371 21.1947 25.0262C20.976 25.0037 20.7933 25.159 20.7819 25.346Z" fill="#2283C6"/>
<path d="M22.3744 27.3993C22.1622 27.3801 21.973 27.5317 21.9615 27.719C21.9497 27.9061 22.1151 28.066 22.3315 28.0759C23.1878 28.1166 23.9909 28.1368 24.7407 28.1368C28.7285 28.1365 31.209 27.5661 32.1273 26.434C32.7355 25.6842 32.4011 24.9821 32.3866 24.9526C32.3016 24.7801 32.0718 24.6997 31.8723 24.7735C31.6731 24.8467 31.5801 25.046 31.6651 25.2181C31.667 25.2217 31.8405 25.6067 31.4851 26.0447C30.9647 26.6865 29.0866 27.7134 22.3744 27.3993Z" fill="#2283C6"/>
<path d="M32.4364 27.9033C32.4402 27.9148 32.5302 28.1869 32.2269 28.52C31.6731 29.1281 29.7047 30.0997 22.765 29.7719C22.5551 29.7517 22.3636 29.9047 22.3522 30.0917C22.3403 30.2787 22.5057 30.4386 22.7221 30.4486C23.6734 30.4936 24.5607 30.5161 25.3852 30.5161C29.4339 30.5161 31.9497 29.9752 32.8764 28.902C33.4057 28.2889 33.2027 27.7434 33.1778 27.6831C33.1066 27.5096 32.8891 27.4219 32.688 27.4795C32.4858 27.5368 32.3751 27.7275 32.4364 27.9033Z" fill="#2283C6"/>
<path d="M32.9399 29.8301C32.7231 29.8301 32.5477 29.982 32.5477 30.1691C32.5481 30.9318 32.2276 31.5594 31.5949 32.0354C30.749 32.6717 29.3921 32.9643 28.0548 32.8044C27.4799 32.7349 26.8197 32.5571 26.1208 32.3684C24.9711 32.0586 23.7817 31.7411 22.7078 31.8232C22.4922 31.8405 22.3337 32.0056 22.3532 32.192C22.3731 32.378 22.5581 32.5158 22.7798 32.4985C23.697 32.4237 24.8107 32.7253 25.8872 33.0156C26.6179 33.2126 27.308 33.3989 27.9464 33.4758C28.2218 33.5092 28.4982 33.5254 28.7725 33.5254C30.0489 33.5254 31.2771 33.1735 32.1096 32.5469C32.91 31.9451 33.3325 31.1228 33.3321 30.1691C33.3321 29.9817 33.1563 29.8301 32.9399 29.8301Z" fill="#2283C6"/>
<path d="M20.0025 15.593C24.7665 15.593 28.6299 12.1022 28.6299 7.7965C28.6299 3.49076 24.7665 0 20.0025 0C15.2384 0 11.375 3.49076 11.375 7.7965C11.375 12.1022 15.2384 15.593 20.0025 15.593ZM20.0025 0.677956C24.3273 0.677956 27.8456 3.87127 27.8456 7.7965C27.8456 11.7217 24.3273 14.915 20.0025 14.915C15.6776 14.915 12.1593 11.7217 12.1593 7.7965C12.1593 3.87127 15.6776 0.677956 20.0025 0.677956Z" fill="#2283C6"/>
<path d="M14.7856 14.8473C14.5041 14.6782 14.2337 14.4956 13.9748 14.3008C11.1198 14.8715 8.56391 16.0281 6.52344 17.6268H7.73093C9.74383 16.2284 12.1611 15.2806 14.7856 14.8473Z" fill="#2283C6"/>
<path d="M25.2148 14.8489C27.837 15.2829 30.2524 16.23 32.2637 17.627H33.4712C31.4323 16.0299 28.8786 14.8741 26.0259 14.3027C25.7671 14.4975 25.4963 14.6798 25.2148 14.8489Z" fill="#2283C6"/>
</svg>
